<?xml version="1.0" encoding="UTF-8" standalone="no"?>
<!-- Generator: Adobe Illustrator 19.0.0, SVG Export Plug-In . SVG Version: 6.00 Build 0)  -->

<svg
   xmlns:dc="http://purl.org/dc/elements/1.1/"
   xmlns:cc="http://creativecommons.org/ns#"
   xmlns:rdf="http://www.w3.org/1999/02/22-rdf-syntax-ns#"
   xmlns:svg="http://www.w3.org/2000/svg"
   xmlns="http://www.w3.org/2000/svg"
   xmlns:sodipodi="http://sodipodi.sourceforge.net/DTD/sodipodi-0.dtd"
   xmlns:inkscape="http://www.inkscape.org/namespaces/inkscape"
   version="1.1"
   id="Capa_1"
   x="0px"
   y="0px"
   viewBox="0 0 15 29.5"
   xml:space="preserve"
   inkscape:version="0.91 r13725"
   sodipodi:docname="Ball.svg"
   width="15"
   height="29.5"><metadata
     id="metadata39"><rdf:RDF><cc:Work
         rdf:about=""><dc:format>image/svg+xml</dc:format><dc:type
           rdf:resource="http://purl.org/dc/dcmitype/StillImage" /><dc:title></dc:title></cc:Work></rdf:RDF></metadata><defs
     id="defs37" /><sodipodi:namedview
     pagecolor="#ffffff"
     bordercolor="#666666"
     borderopacity="1"
     objecttolerance="10"
     gridtolerance="10"
     guidetolerance="10"
     inkscape:pageopacity="0"
     inkscape:pageshadow="2"
     inkscape:window-width="995"
     inkscape:window-height="480"
     id="namedview35"
     showgrid="false"
     fit-margin-top="0"
     fit-margin-left="0"
     fit-margin-right="0"
     fit-margin-bottom="0"
     inkscape:zoom="4"
     inkscape:cx="13.5"
     inkscape:cy="28.75"
     inkscape:window-x="0"
     inkscape:window-y="32"
     inkscape:window-maximized="0"
     inkscape:current-layer="Capa_1" /><path
     d="M 15,7.5 C 15,3.3645 11.6355,0 7.5,0 3.3645,0 0,3.3645 0,7.5 c 0,3.967 3.0975,7.2155 7,7.4745 L 7,29 c 0,0.2765 0.224,0.5 0.5,0.5 C 7.776,29.5 8,29.2765 8,29 L 8,14.9745 C 11.9025,14.7155 15,11.467 15,7.5 Z m -10,0 c -1.103,0 -2,-0.897 -2,-2 0,-1.103 0.897,-2 2,-2 1.103,0 2,0.897 2,2 0,1.103 -0.897,2 -2,2 z"
     id="path3"
     inkscape:connector-curvature="0" /><g
     id="g5"
     transform="translate(-16,-28.75)" /><g
     id="g7"
     transform="translate(-16,-28.75)" /><g
     id="g9"
     transform="translate(-16,-28.75)" /><g
     id="g11"
     transform="translate(-16,-28.75)" /><g
     id="g13"
     transform="translate(-16,-28.75)" /><g
     id="g15"
     transform="translate(-16,-28.75)" /><g
     id="g17"
     transform="translate(-16,-28.75)" /><g
     id="g19"
     transform="translate(-16,-28.75)" /><g
     id="g21"
     transform="translate(-16,-28.75)" /><g
     id="g23"
     transform="translate(-16,-28.75)" /><g
     id="g25"
     transform="translate(-16,-28.75)" /><g
     id="g27"
     transform="translate(-16,-28.75)" /><g
     id="g29"
     transform="translate(-16,-28.75)" /><g
     id="g31"
     transform="translate(-16,-28.75)" /><g
     id="g33"
     transform="translate(-16,-28.75)" /></svg>