<?xml version="1.0" encoding="UTF-8" standalone="no"?>
<svg
   xmlns:dc="http://purl.org/dc/elements/1.1/"
   xmlns:cc="http://creativecommons.org/ns#"
   xmlns:rdf="http://www.w3.org/1999/02/22-rdf-syntax-ns#"
   xmlns:svg="http://www.w3.org/2000/svg"
   xmlns="http://www.w3.org/2000/svg"
   viewBox="0 -256 1792 1792"
   id="svg3025"
   version="1.1"
   width="100%"
   height="100%">
  <metadata
     id="metadata3035">
    <rdf:RDF>
      <cc:Work
         rdf:about="">
        <dc:format>image/svg+xml</dc:format>
        <dc:type
           rdf:resource="http://purl.org/dc/dcmitype/StillImage" />
        <dc:title></dc:title>
      </cc:Work>
    </rdf:RDF>
  </metadata>
  <defs
     id="defs3033" />
  <path
     id="path3029-3"
     d="M 876.47461,24.000247 A 362.353,362.353 0 0 1 1238.8279,386.35354 362.353,362.353 0 0 1 876.47461,748.70677 362.353,362.353 0 0 1 514.12131,386.35354 362.353,362.353 0 0 1 876.47461,24.000247 Z"
     style="fill:#ffffff;opacity:0.7" />
  <path
     id="path21912"
     transform="translate(0,-256)"
     d="M 876.47461 118.23633 C 735.14128 118.23633 614.47461 168.23633 514.47461 268.23633 C 414.47461 368.23633 364.47461 488.903 364.47461 630.23633 C 364.47461 702.903 375.47461 762.56966 397.47461 809.23633 L 762.47461 1583.2363 C 772.47461 1605.2363 787.97461 1622.5696 808.97461 1635.2363 C 829.97461 1647.903 852.47461 1654.2363 876.47461 1654.2363 C 900.47461 1654.2363 922.97461 1647.903 943.97461 1635.2363 C 964.97461 1622.5696 980.80794 1605.2363 991.47461 1583.2363 L 1355.4746 809.23633 C 1377.4746 762.56966 1388.4746 702.903 1388.4746 630.23633 C 1388.4746 488.903 1338.4746 368.23633 1238.4746 268.23633 C 1138.4746 168.23633 1017.8079 118.23633 876.47461 118.23633 z M 876.47461 280 A 362.353 362.353 0 0 1 1238.8281 642.35352 A 362.353 362.353 0 0 1 876.47461 1004.707 A 362.353 362.353 0 0 1 514.12109 642.35352 A 362.353 362.353 0 0 1 876.47461 280 z "
     style="fill:#000000;opacity:0.7" />
</svg>
